<svg version="1.1" xmlns="http://www.w3.org/2000/svg" viewBox="0 0 1195.0208435058594 344.6666717529297" width="2390.0416870117188" height="689.3333435058594">
  <!-- svg-source:excalidraw -->
  
  <defs>
    <style class="style-fonts">
      @font-face {
        font-family: "Virgil";
        src: url("https://excalidraw.com/Virgil.woff2");
      }
      @font-face {
        font-family: "Cascadia";
        src: url("https://excalidraw.com/Cascadia.woff2");
      }
      @font-face {
        font-family: "Assistant";
        src: url("https://excalidraw.com/Assistant-Regular.woff2");
      }
    </style>
    
  </defs>
  <g stroke-linecap="round" transform="translate(15.625 10) rotate(0 189.2291717529297 21.83333396911621)"><path d="M0 0 C94.83 0.18, 186.68 1.6, 378.46 0 M0 0 C147.42 1.91, 294.14 1.55, 378.46 0 M378.46 0 C377.16 8.51, 378.88 18.91, 378.46 43.67 M378.46 0 C378.57 16.15, 378.48 34, 378.46 43.67 M378.46 43.67 C295.35 42.79, 214.5 43.07, 0 43.67 M378.46 43.67 C266.19 44.22, 154.47 43.66, 0 43.67 M0 43.67 C0.04 28.13, 0.03 12.07, 0 0 M0 43.67 C0.01 33.49, -0.95 25.14, 0 0" stroke="#1e1e1e" stroke-width="2" fill="none"></path></g><g transform="translate(31.894302368164062 19.33333396911621) rotate(0 172.95986938476562 12.5)"><text x="172.95986938476562" y="17.52" font-family="Virgil, Segoe UI Emoji" font-size="20px" fill="#1e1e1e" text-anchor="middle" style="white-space: pre;" direction="ltr" dominant-baseline="alphabetic">Extração e Tratamento de Dados</text></g><g stroke-linecap="round" transform="translate(845.8072967529297 10) rotate(0 94.47916412353516 21.83333396911621)"><path d="M0 0 C50.9 2.32, 105.82 2.26, 188.96 0 M0 0 C44.47 -1.32, 89.02 -1.51, 188.96 0 M188.96 0 C189.07 16.77, 190.51 31.89, 188.96 43.67 M188.96 0 C188.89 14.28, 188.14 29.62, 188.96 43.67 M188.96 43.67 C145.87 46.25, 100.91 44.75, 0 43.67 M188.96 43.67 C128.83 43.43, 69.48 45.05, 0 43.67 M0 43.67 C0.34 31.11, -1.85 18.07, 0 0 M0 43.67 C-0.93 27.89, -0.55 11.18, 0 0" stroke="#1e1e1e" stroke-width="2" fill="none"></path></g><g transform="translate(861.9165191650391 19.33333396911621) rotate(0 78.36994171142578 12.5)"><text x="78.36994171142578" y="17.52" font-family="Virgil, Segoe UI Emoji" font-size="20px" fill="#1e1e1e" text-anchor="middle" style="white-space: pre;" direction="ltr" dominant-baseline="alphabetic">Análise no NCBI</text></g><g stroke-linecap="round" transform="translate(10 103.66666793823242) rotate(0 194.8541717529297 21.83333396911621)"><path d="M0 0 C105.69 -0.99, 208.57 -1.58, 389.71 0 M0 0 C148.3 -0.5, 298.06 -0.91, 389.71 0 M389.71 0 C391.64 12.63, 390.44 24.36, 389.71 43.67 M389.71 0 C388.85 9.5, 389 17.06, 389.71 43.67 M389.71 43.67 C251.6 45.48, 113.79 44.88, 0 43.67 M389.71 43.67 C263.96 42.65, 137.41 42.24, 0 43.67 M0 43.67 C-1.84 29.82, 1.14 15.7, 0 0 M0 43.67 C-0.13 33.58, 0.28 25.95, 0 0" stroke="#1e1e1e" stroke-width="2" fill="none"></path></g><g transform="translate(47.374298095703125 113.00000190734863) rotate(0 157.47987365722656 12.5)"><text x="157.47987365722656" y="17.52" font-family="Virgil, Segoe UI Emoji" font-size="20px" fill="#1e1e1e" text-anchor="middle" style="white-space: pre;" direction="ltr" dominant-baseline="alphabetic">Algoritmos em Linha de Comando</text></g><g stroke-linecap="round" transform="translate(695.5520935058594 103.66666793823242) rotate(0 244.734375 21.83333396911621)"><path d="M0 0 C188.48 -1.43, 378.69 -2.13, 489.47 0 M0 0 C158.42 -0.35, 316.26 0.01, 489.47 0 M489.47 0 C490.51 15.42, 487.94 30.65, 489.47 43.67 M489.47 0 C488.44 11.4, 489.65 24.66, 489.47 43.67 M489.47 43.67 C304.55 43.32, 119.52 43.67, 0 43.67 M489.47 43.67 C376.12 45.67, 262.91 45.66, 0 43.67 M0 43.67 C1.62 29.94, -1.4 14.2, 0 0 M0 43.67 C0.12 31.14, -0.09 18.18, 0 0" stroke="#1e1e1e" stroke-width="2" fill="none"></path></g><g transform="translate(737.6066589355469 113.00000190734863) rotate(0 202.6798095703125 12.5)"><text x="202.6798095703125" y="17.52" font-family="Virgil, Segoe UI Emoji" font-size="20px" fill="#1e1e1e" text-anchor="middle" style="white-space: pre;" direction="ltr" dominant-baseline="alphabetic">Aplicação de algoritmos de bioinformática</text></g><g stroke-linecap="round" transform="translate(37.82292175292969 197.33333587646484) rotate(0 167.03125 21.83333396911621)"><path d="M0 0 C129.13 -1.44, 256.35 -2.04, 334.06 0 M0 0 C101.36 1.62, 203.37 2.11, 334.06 0 M334.06 0 C332.27 13.94, 333.75 26.53, 334.06 43.67 M334.06 0 C334.31 16.23, 334.55 31.53, 334.06 43.67 M334.06 43.67 C233.19 42.48, 130.76 43.46, 0 43.67 M334.06 43.67 C202.84 44.32, 71.44 43.58, 0 43.67 M0 43.67 C-2.06 28.34, -0.22 15.6, 0 0 M0 43.67 C-0.27 35.39, 0.11 25.43, 0 0" stroke="#1e1e1e" stroke-width="2" fill="none"></path></g><g transform="translate(65.11428833007812 206.66666984558105) rotate(0 139.73988342285156 12.5)"><text x="139.73988342285156" y="17.52" font-family="Virgil, Segoe UI Emoji" font-size="20px" fill="#1e1e1e" text-anchor="middle" style="white-space: pre;" direction="ltr" dominant-baseline="alphabetic">Comandos e Scripts no Linux</text></g><g stroke-linecap="round" transform="translate(809.7500076293945 197.33333587646484) rotate(0 130.5364532470703 21.83333396911621)"><path d="M0 0 C87.29 -0.45, 173.9 2.03, 261.07 0 M0 0 C61.55 0.31, 122.44 -0.16, 261.07 0 M261.07 0 C260.2 11.48, 261.88 24.93, 261.07 43.67 M261.07 0 C262.09 9.95, 261.34 20.16, 261.07 43.67 M261.07 43.67 C194.29 44.58, 131.18 43.45, 0 43.67 M261.07 43.67 C177.08 43.42, 92.89 44.61, 0 43.67 M0 43.67 C0.44 29.29, -1.38 16.8, 0 0 M0 43.67 C0.2 27.77, 0.47 11.71, 0 0" stroke="#1e1e1e" stroke-width="2" fill="none"></path></g><g transform="translate(826.4165496826172 206.66666984558105) rotate(0 113.86991119384766 12.5)"><text x="113.86991119384766" y="17.52" font-family="Virgil, Segoe UI Emoji" font-size="20px" fill="#1e1e1e" text-anchor="middle" style="white-space: pre;" direction="ltr" dominant-baseline="alphabetic">Automação de tarefas</text></g><g stroke-linecap="round" transform="translate(25.046875 291.00000381469727) rotate(0 179.8072967529297 21.83333396911621)"><path d="M0 0 C89.37 2.94, 177.81 1.91, 359.61 0 M0 0 C115.26 -1.89, 230.24 -2.71, 359.61 0 M359.61 0 C360.75 11.42, 358.09 26.62, 359.61 43.67 M359.61 0 C359.98 15.23, 359.47 30.34, 359.61 43.67 M359.61 43.67 C255.27 45.1, 148.85 45.43, 0 43.67 M359.61 43.67 C244 42.06, 128.31 41.11, 0 43.67 M0 43.67 C-1.79 34.32, 1.37 24.79, 0 0 M0 43.67 C0.3 26.71, -0.95 9.79, 0 0" stroke="#1e1e1e" stroke-width="2" fill="none"></path></g><g transform="translate(53.02427673339844 300.3333377838135) rotate(0 151.82989501953125 12.5)"><text x="151.82989501953125" y="17.52" font-family="Virgil, Segoe UI Emoji" font-size="20px" fill="#1e1e1e" text-anchor="middle" style="white-space: pre;" direction="ltr" dominant-baseline="alphabetic">Ciência de Dados em R/Python</text></g><g stroke-linecap="round" transform="translate(840.6250076293945 291.00000381469727) rotate(0 99.66146087646484 21.83333396911621)"><path d="M0 0 C39.44 -1.62, 81.93 -0.14, 199.32 0 M0 0 C78.14 -1.61, 156.18 -0.87, 199.32 0 M199.32 0 C198.17 10.58, 200.49 20.54, 199.32 43.67 M199.32 0 C198.85 13.16, 199.27 25.15, 199.32 43.67 M199.32 43.67 C126.9 44, 54.02 43.9, 0 43.67 M199.32 43.67 C157.02 44.01, 113.7 44.92, 0 43.67 M0 43.67 C1.77 32.24, 2.28 22.22, 0 0 M0 43.67 C-1.06 30.2, 0.31 15.19, 0 0" stroke="#1e1e1e" stroke-width="2" fill="none"></path></g><g transform="translate(859.9865493774414 300.3333377838135) rotate(0 80.29991912841797 12.5)"><text x="80.29991912841797" y="17.52" font-family="Virgil, Segoe UI Emoji" font-size="20px" fill="#1e1e1e" text-anchor="middle" style="white-space: pre;" direction="ltr" dominant-baseline="alphabetic">Dados biológicos</text></g><g mask="url(#mask-0uoIUinEvebEC3znfToaQ)" stroke-linecap="round"><g transform="translate(394.583 31.833) rotate(0 222.90102182392775 0.2130153655260898)"><path d="M-0.25 0.24 C73.97 0.56, 371.73 1.08, 446.06 1.1 M1.81 -0.68 C75.87 -0.6, 371.56 -0.26, 445.44 -0.44" stroke="#1e1e1e" stroke-width="2" fill="none"></path></g><g transform="translate(394.583 31.833) rotate(0 222.90102182392775 0.2130153655260898)"><path d="M421.95 8.12 C430.86 6.14, 440.76 2.46, 445.44 -0.44 M421.95 8.12 C429.68 5.28, 436.73 3.28, 445.44 -0.44" stroke="#1e1e1e" stroke-width="2" fill="none"></path></g><g transform="translate(394.583 31.833) rotate(0 222.90102182392775 0.2130153655260898)"><path d="M421.95 -8.98 C430.75 -4.8, 440.64 -2.33, 445.44 -0.44 M421.95 -8.98 C429.67 -6.14, 436.73 -2.47, 445.44 -0.44" stroke="#1e1e1e" stroke-width="2" fill="none"></path></g></g><mask id="mask-0uoIUinEvebEC3znfToaQ"><rect x="0" y="0" fill="#fff" width="941.0070000000001" height="131.833"></rect><rect x="514.9250811767577" y="19.333" fill="#000" width="204.73983764648438" height="25" opacity="1"></rect></mask><g transform="translate(514.9250811767578 19.333) rotate(0 102.55894064717 12.71301536552609)"><text x="102.36991882324219" y="17.52" font-family="Virgil, Segoe UI Emoji" font-size="20px" fill="#1e1e1e" text-anchor="middle" style="white-space: pre;" direction="ltr" dominant-baseline="alphabetic">Coleta e preparação</text></g><g mask="url(#mask-gVjEwBfoPQOYDSLBua4H0)" stroke-linecap="round"><g transform="translate(400.208 125.5) rotate(0 144.66116267655786 -0.21478426036425446)"><path d="M0.63 1.1 C48.98 1.13, 241.66 0.76, 289.82 0.39 M-0.49 0.64 C47.74 0.27, 240.8 -1.35, 289.01 -1.53" stroke="#1e1e1e" stroke-width="2" fill="none"></path></g><g transform="translate(400.208 125.5) rotate(0 144.66116267655786 -0.21478426036425446)"><path d="M265.57 7.17 C273.93 5.07, 279.27 2.21, 289.01 -1.53 M265.57 7.17 C269.52 6.06, 274.45 2.97, 289.01 -1.53" stroke="#1e1e1e" stroke-width="2" fill="none"></path></g><g transform="translate(400.208 125.5) rotate(0 144.66116267655786 -0.21478426036425446)"><path d="M265.46 -9.93 C273.89 -7.26, 279.25 -5.36, 289.01 -1.53 M265.46 -9.93 C269.42 -7.56, 274.37 -7.17, 289.01 -1.53" stroke="#1e1e1e" stroke-width="2" fill="none"></path></g></g><mask id="mask-gVjEwBfoPQOYDSLBua4H0"><rect x="0" y="0" fill="#fff" width="790.752" height="225.5"></rect><rect x="445.89007995605476" y="113" fill="#000" width="198.17984008789062" height="25" opacity="1"></rect></mask><g transform="translate(445.8900799560547 113) rotate(0 98.97908272050319 12.285215739635746)"><text x="99.08992004394531" y="17.52" font-family="Virgil, Segoe UI Emoji" font-size="20px" fill="#1e1e1e" text-anchor="middle" style="white-space: pre;" direction="ltr" dominant-baseline="alphabetic">Uso de ferramentas</text></g><g mask="url(#mask-v_x9Y9ulTTmEfLzmOEzm_)" stroke-linecap="round"><g transform="translate(372.385 219.16700000000003) rotate(0 215.26581093706193 -0.38622031621633823)"><path d="M0.27 0.39 C72.1 0.01, 359.71 -1.05, 431.58 -1.16 M-1.04 -0.46 C70.57 -0.22, 358.68 -0.46, 430.63 -0.23" stroke="#1e1e1e" stroke-width="2" fill="none"></path></g><g transform="translate(372.385 219.16700000000003) rotate(0 215.26581093706193 -0.38622031621633823)"><path d="M407.13 8.3 C415.99 5.26, 421.7 2.08, 430.63 -0.23 M407.13 8.3 C413.05 5.08, 420.78 3.87, 430.63 -0.23" stroke="#1e1e1e" stroke-width="2" fill="none"></path></g><g transform="translate(372.385 219.16700000000003) rotate(0 215.26581093706193 -0.38622031621633823)"><path d="M407.15 -8.8 C416.15 -5.81, 421.86 -2.96, 430.63 -0.23 M407.15 -8.8 C412.92 -7.28, 420.64 -3.74, 430.63 -0.23" stroke="#1e1e1e" stroke-width="2" fill="none"></path></g></g><mask id="mask-v_x9Y9ulTTmEfLzmOEzm_"><rect x="0" y="0" fill="#fff" width="904.95" height="319.16700000000003"></rect><rect x="479.6575817871094" y="206.66700000000003" fill="#000" width="217.01983642578125" height="25" opacity="1"></rect></mask><g transform="translate(479.6575817871094 206.66700000000003) rotate(0 107.99322914995253 12.113779683783662)"><text x="108.50991821289062" y="17.52" font-family="Virgil, Segoe UI Emoji" font-size="20px" fill="#1e1e1e" text-anchor="middle" style="white-space: pre;" direction="ltr" dominant-baseline="alphabetic">Manipulação de dados</text></g><g mask="url(#mask-_9yBkEEGHFR1yQrXjcwzm)" stroke-linecap="round"><g transform="translate(385.161 312.833) rotate(0 224.06421577696506 0.03012945094110364)"><path d="M0.01 -1.16 C74.89 -1.27, 374.8 -0.59, 449.57 -0.27 M-1.44 0.85 C73.25 0.89, 373.16 1.47, 448.58 1.12" stroke="#1e1e1e" stroke-width="2" fill="none"></path></g><g transform="translate(385.161 312.833) rotate(0 224.06421577696506 0.03012945094110364)"><path d="M425.09 9.69 C430.71 6.77, 439.77 2.51, 448.58 1.12 M425.09 9.69 C434.18 7.21, 442.91 3.62, 448.58 1.12" stroke="#1e1e1e" stroke-width="2" fill="none"></path></g><g transform="translate(385.161 312.833) rotate(0 224.06421577696506 0.03012945094110364)"><path d="M425.08 -7.41 C430.76 -4.81, 439.82 -3.56, 448.58 1.12 M425.08 -7.41 C434.06 -3.71, 442.79 -1.12, 448.58 1.12" stroke="#1e1e1e" stroke-width="2" fill="none"></path></g></g><mask id="mask-_9yBkEEGHFR1yQrXjcwzm"><rect x="0" y="0" fill="#fff" width="935.825" height="412.833"></rect><rect x="502.32309338378906" y="300.333" fill="#000" width="215.33981323242188" height="25" opacity="1"></rect></mask><g transform="translate(502.3230933837891 300.333) rotate(0 106.90212239317594 12.530129450941104)"><text x="107.66990661621094" y="17.52" font-family="Virgil, Segoe UI Emoji" font-size="20px" fill="#1e1e1e" text-anchor="middle" style="white-space: pre;" direction="ltr" dominant-baseline="alphabetic">Análise e visualização</text></g></svg>